<?xml version="1.0" encoding="UTF-8"?>
<svg xmlns="http://www.w3.org/2000/svg" xmlns:xlink="http://www.w3.org/1999/xlink" width="360px" height="360px" viewBox="0 0 360 360">
<path fill="none" stroke-width="8" stroke-linecap="round" stroke-linejoin="round" stroke="rgb(28.627455%, 58.431399%, 95.294118%)" stroke-opacity="1" stroke-miterlimit="10" d="M 180 180 L 100 100 L 180 180 L 260 100 L 180 180 L 260 260 L 180 180 L 100 260 "/>
<path fill="none" stroke-width="8" stroke-linecap="round" stroke-linejoin="round" stroke="rgb(28.627455%, 58.431399%, 95.294118%)" stroke-opacity="1" stroke-miterlimit="10" d="M 100 180 L 140 180 L 100 140 L 140 180 L 100 220 "/>
<path fill="none" stroke-width="8" stroke-linecap="round" stroke-linejoin="round" stroke="rgb(28.627455%, 58.431399%, 95.294118%)" stroke-opacity="1" stroke-miterlimit="10" d="M 220 100 L 180 140 L 180 100 L 180 140 L 140 100 "/>
<path fill="none" stroke-width="8" stroke-linecap="round" stroke-linejoin="round" stroke="rgb(28.627455%, 58.431399%, 95.294118%)" stroke-opacity="1" stroke-miterlimit="10" d="M 260 140 L 220 180 L 260 220 L 220 180 L 260 180 "/>
<path fill="none" stroke-width="8" stroke-linecap="round" stroke-linejoin="round" stroke="rgb(28.627455%, 58.431399%, 95.294118%)" stroke-opacity="1" stroke-miterlimit="10" d="M 140 260 L 180 220 L 220 260 L 180 220 L 180 260 "/>
<path fill="none" stroke-width="8" stroke-linecap="round" stroke-linejoin="round" stroke="rgb(28.627455%, 58.431399%, 95.294118%)" stroke-opacity="1" stroke-miterlimit="10" d="M 100 100 L 140 100 "/>
<path fill="none" stroke-width="8" stroke-linecap="round" stroke-linejoin="round" stroke="rgb(28.627455%, 58.431399%, 95.294118%)" stroke-opacity="1" stroke-miterlimit="10" d="M 180 100 L 220 100 "/>
<path fill="none" stroke-width="8" stroke-linecap="round" stroke-linejoin="round" stroke="rgb(28.627455%, 58.431399%, 95.294118%)" stroke-opacity="1" stroke-miterlimit="10" d="M 260 100 L 260 140 "/>
<path fill="none" stroke-width="8" stroke-linecap="round" stroke-linejoin="round" stroke="rgb(28.627455%, 58.431399%, 95.294118%)" stroke-opacity="1" stroke-miterlimit="10" d="M 260 180 L 260 220 "/>
<path fill="none" stroke-width="8" stroke-linecap="round" stroke-linejoin="round" stroke="rgb(28.627455%, 58.431399%, 95.294118%)" stroke-opacity="1" stroke-miterlimit="10" d="M 260 260 L 220 260 "/>
<path fill="none" stroke-width="8" stroke-linecap="round" stroke-linejoin="round" stroke="rgb(28.627455%, 58.431399%, 95.294118%)" stroke-opacity="1" stroke-miterlimit="10" d="M 180 260 L 140 260 "/>
<path fill="none" stroke-width="8" stroke-linecap="round" stroke-linejoin="round" stroke="rgb(28.627455%, 58.431399%, 95.294118%)" stroke-opacity="1" stroke-miterlimit="10" d="M 100 260 L 100 220 "/>
<path fill="none" stroke-width="8" stroke-linecap="round" stroke-linejoin="round" stroke="rgb(28.627455%, 58.431399%, 95.294118%)" stroke-opacity="1" stroke-miterlimit="10" d="M 100 180 L 100 140 "/>
<path fill="none" stroke-width="8" stroke-linecap="round" stroke-linejoin="round" stroke="rgb(28.627455%, 58.431399%, 95.294118%)" stroke-opacity="1" stroke-miterlimit="10" d="M 140 260 L 180 240 L 160 260 L 160 240 L 180 220 L 180 260 L 160 240 L 160 260 L 180 220 L 220 260 L 260 260 L 180 180 L 100 260 L 100 220 L 140 180 L 100 160 L 120 160 L 100 180 L 100 140 L 120 180 L 100 160 L 140 180 L 100 220 L 100 260 L 260 100 L 260 140 L 220 180 L 260 200 L 240 200 L 260 180 L 260 220 L 240 180 L 260 200 L 220 180 L 260 140 L 260 100 L 180 180 L 100 100 L 140 100 L 180 140 L 200 100 L 180 120 L 200 120 L 180 100 L 220 100 L 180 120 L 200 100 L 200 120 "/>
<path fill="none" stroke-width="8" stroke-linecap="round" stroke-linejoin="round" stroke="rgb(28.627455%, 58.431399%, 95.294118%)" stroke-opacity="1" stroke-miterlimit="10" d="M 100 280 L 180 300 L 260 280 "/>
<path fill="none" stroke-width="8" stroke-linecap="round" stroke-linejoin="round" stroke="rgb(28.627455%, 58.431399%, 95.294118%)" stroke-opacity="1" stroke-miterlimit="10" d="M 280 260 L 300 180 L 280 100 "/>
<path fill="none" stroke-width="8" stroke-linecap="round" stroke-linejoin="round" stroke="rgb(28.627455%, 58.431399%, 95.294118%)" stroke-opacity="1" stroke-miterlimit="10" d="M 80 260 L 60 180 L 80 100 "/>
<path fill="none" stroke-width="8" stroke-linecap="round" stroke-linejoin="round" stroke="rgb(28.627455%, 58.431399%, 95.294118%)" stroke-opacity="1" stroke-miterlimit="10" d="M 100 80 L 180 60 L 260 80 "/>
<path fill="none" stroke-width="8" stroke-linecap="round" stroke-linejoin="round" stroke="rgb(28.627455%, 58.431399%, 95.294118%)" stroke-opacity="1" stroke-miterlimit="10" d="M 80 100 L 80 260 "/>
<path fill="none" stroke-width="8" stroke-linecap="round" stroke-linejoin="round" stroke="rgb(28.627455%, 58.431399%, 95.294118%)" stroke-opacity="1" stroke-miterlimit="10" d="M 100 280 L 260 280 "/>
<path fill="none" stroke-width="8" stroke-linecap="round" stroke-linejoin="round" stroke="rgb(28.627455%, 58.431399%, 95.294118%)" stroke-opacity="1" stroke-miterlimit="10" d="M 280 260 L 280 100 "/>
<path fill="none" stroke-width="8" stroke-linecap="round" stroke-linejoin="round" stroke="rgb(28.627455%, 58.431399%, 95.294118%)" stroke-opacity="1" stroke-miterlimit="10" d="M 260 80 L 100 80 "/>
<path fill="none" stroke-width="8" stroke-linecap="round" stroke-linejoin="round" stroke="rgb(28.627455%, 58.431399%, 95.294118%)" stroke-opacity="1" stroke-miterlimit="10" d="M 100 80 C 100 80 80 80 80 100 "/>
<path fill="none" stroke-width="8" stroke-linecap="round" stroke-linejoin="round" stroke="rgb(28.627455%, 58.431399%, 95.294118%)" stroke-opacity="1" stroke-miterlimit="10" d="M 260 80 C 260 80 280 80 280 100 "/>
<path fill="none" stroke-width="8" stroke-linecap="round" stroke-linejoin="round" stroke="rgb(28.627455%, 58.431399%, 95.294118%)" stroke-opacity="1" stroke-miterlimit="10" d="M 280 260 C 280 260 280 280 260 280 "/>
<path fill="none" stroke-width="8" stroke-linecap="round" stroke-linejoin="round" stroke="rgb(28.627455%, 58.431399%, 95.294118%)" stroke-opacity="1" stroke-miterlimit="10" d="M 100 280 C 100 280 80 280 80 260 "/>
<path fill="none" stroke-width="8" stroke-linecap="round" stroke-linejoin="round" stroke="rgb(28.627455%, 58.431399%, 95.294118%)" stroke-opacity="1" stroke-miterlimit="10" d="M 300 180 L 280 180 L 280 240 L 280 140 L 300 180 L 280 220 L 280 180 "/>
<path fill="none" stroke-width="8" stroke-linecap="round" stroke-linejoin="round" stroke="rgb(28.627455%, 58.431399%, 95.294118%)" stroke-opacity="1" stroke-miterlimit="10" d="M 280 140 L 300 180 "/>
<path fill="none" stroke-width="8" stroke-linecap="round" stroke-linejoin="round" stroke="rgb(28.627455%, 58.431399%, 95.294118%)" stroke-opacity="1" stroke-miterlimit="10" d="M 280 220 L 280 260 L 300 180 "/>
<path fill="none" stroke-width="8" stroke-linecap="round" stroke-linejoin="round" stroke="rgb(28.627455%, 58.431399%, 95.294118%)" stroke-opacity="1" stroke-miterlimit="10" d="M 280 220 L 280 120 "/>
<path fill="none" stroke-width="8" stroke-linecap="round" stroke-linejoin="round" stroke="rgb(28.627455%, 58.431399%, 95.294118%)" stroke-opacity="1" stroke-miterlimit="10" d="M 280 180 L 300 180 L 280 200 "/>
<path fill="none" stroke-width="8" stroke-linecap="round" stroke-linejoin="round" stroke="rgb(28.627455%, 58.431399%, 95.294118%)" stroke-opacity="1" stroke-miterlimit="10" d="M 300 180 L 280 160 "/>
<path fill="none" stroke-width="8" stroke-linecap="round" stroke-linejoin="round" stroke="rgb(28.627455%, 58.431399%, 95.294118%)" stroke-opacity="1" stroke-miterlimit="10" d="M 300 180 L 280 140 "/>
<path fill="none" stroke-width="8" stroke-linecap="round" stroke-linejoin="round" stroke="rgb(28.627455%, 58.431399%, 95.294118%)" stroke-opacity="1" stroke-miterlimit="10" d="M 300 180 L 280 180 L 280 160 L 300 180 L 280 240 "/>
<path fill="none" stroke-width="8" stroke-linecap="round" stroke-linejoin="round" stroke="rgb(28.627455%, 58.431399%, 95.294118%)" stroke-opacity="1" stroke-miterlimit="10" d="M 300 180 L 280 120 "/>
<path fill="none" stroke-width="8" stroke-linecap="round" stroke-linejoin="round" stroke="rgb(28.627455%, 58.431399%, 95.294118%)" stroke-opacity="1" stroke-miterlimit="10" d="M 300 180 L 280 180 L 280 200 L 300 180 "/>
<path fill="none" stroke-width="8" stroke-linecap="round" stroke-linejoin="round" stroke="rgb(28.627455%, 58.431399%, 95.294118%)" stroke-opacity="1" stroke-miterlimit="10" d="M 180 280 L 180 300 L 200 280 L 180 300 L 200 280 L 160 280 L 180 300 L 160 280 L 140 280 L 180 300 L 140 280 L 220 280 L 180 300 L 220 280 L 240 280 L 180 300 L 120 280 "/>
<path fill="none" stroke-width="8" stroke-linecap="round" stroke-linejoin="round" stroke="rgb(28.627455%, 58.431399%, 95.294118%)" stroke-opacity="1" stroke-miterlimit="10" d="M 80 240 L 60 180 L 80 220 L 80 200 L 60 180 L 80 180 L 60 180 L 80 160 L 60 180 L 80 140 L 80 120 L 60 180 "/>
<path fill="none" stroke-width="8" stroke-linecap="round" stroke-linejoin="round" stroke="rgb(28.627455%, 58.431399%, 95.294118%)" stroke-opacity="1" stroke-miterlimit="10" d="M 120 80 L 180 60 L 160 80 L 140 80 L 180 60 L 180 80 L 160 80 L 180 60 L 200 80 L 220 80 L 180 60 L 240 80 "/>
<path fill="none" stroke-width="8" stroke-linecap="round" stroke-linejoin="round" stroke="rgb(28.627455%, 58.431399%, 95.294118%)" stroke-opacity="1" stroke-miterlimit="10" d="M 280 240 L 300 180 "/>
<path fill="none" stroke-width="8" stroke-linecap="round" stroke-linejoin="round" stroke="rgb(28.627455%, 58.431399%, 95.294118%)" stroke-opacity="1" stroke-miterlimit="10" d="M 280 200 C 280 200 300 200 300 180 "/>
<path fill="none" stroke-width="8" stroke-linecap="round" stroke-linejoin="round" stroke="rgb(28.627455%, 58.431399%, 95.294118%)" stroke-opacity="1" stroke-miterlimit="10" d="M 280 160 C 280 160 280 180 300 180 "/>
<path fill="none" stroke-width="8" stroke-linecap="round" stroke-linejoin="round" stroke="rgb(28.627455%, 58.431399%, 95.294118%)" stroke-opacity="1" stroke-miterlimit="10" d="M 280 200 C 280 200 280 180 300 180 "/>
<path fill="none" stroke-width="8" stroke-linecap="round" stroke-linejoin="round" stroke="rgb(28.627455%, 58.431399%, 95.294118%)" stroke-opacity="1" stroke-miterlimit="10" d="M 280 140 C 280 140 280 180 300 180 "/>
<path fill="none" stroke-width="8" stroke-linecap="round" stroke-linejoin="round" stroke="rgb(28.627455%, 58.431399%, 95.294118%)" stroke-opacity="1" stroke-miterlimit="10" d="M 220 280 C 220 280 180 280 180 300 "/>
<path fill="none" stroke-width="8" stroke-linecap="round" stroke-linejoin="round" stroke="rgb(28.627455%, 58.431399%, 95.294118%)" stroke-opacity="1" stroke-miterlimit="10" d="M 140 280 C 140 280 180 280 180 300 "/>
<path fill="none" stroke-width="8" stroke-linecap="round" stroke-linejoin="round" stroke="rgb(28.627455%, 58.431399%, 95.294118%)" stroke-opacity="1" stroke-miterlimit="10" d="M 180 280 C 180 280 160 280 160 280 C 160 280 180 280 180 300 "/>
<path fill="none" stroke-width="8" stroke-linecap="round" stroke-linejoin="round" stroke="rgb(28.627455%, 58.431399%, 95.294118%)" stroke-opacity="1" stroke-miterlimit="10" d="M 180 280 C 180 280 200 280 200 280 C 200 280 180 280 180 300 "/>
<path fill="none" stroke-width="8" stroke-linecap="round" stroke-linejoin="round" stroke="rgb(28.627455%, 58.431399%, 95.294118%)" stroke-opacity="1" stroke-miterlimit="10" d="M 80 200 C 80 200 60 200 60 180 "/>
<path fill="none" stroke-width="8" stroke-linecap="round" stroke-linejoin="round" stroke="rgb(28.627455%, 58.431399%, 95.294118%)" stroke-opacity="1" stroke-miterlimit="10" d="M 80 160 C 80 160 80 180 60 180 "/>
<path fill="none" stroke-width="8" stroke-linecap="round" stroke-linejoin="round" stroke="rgb(28.627455%, 58.431399%, 95.294118%)" stroke-opacity="1" stroke-miterlimit="10" d="M 80 200 C 80 200 80 180 60 180 "/>
<path fill="none" stroke-width="8" stroke-linecap="round" stroke-linejoin="round" stroke="rgb(28.627455%, 58.431399%, 95.294118%)" stroke-opacity="1" stroke-miterlimit="10" d="M 80 160 C 80 160 80 140 80 140 C 80 140 80 180 60 180 "/>
<path fill="none" stroke-width="8" stroke-linecap="round" stroke-linejoin="round" stroke="rgb(28.627455%, 58.431399%, 95.294118%)" stroke-opacity="1" stroke-miterlimit="10" d="M 140 80 C 140 80 180 80 180 60 "/>
<path fill="none" stroke-width="8" stroke-linecap="round" stroke-linejoin="round" stroke="rgb(28.627455%, 58.431399%, 95.294118%)" stroke-opacity="1" stroke-miterlimit="10" d="M 160 80 C 160 80 180 80 180 60 "/>
<path fill="none" stroke-width="8" stroke-linecap="round" stroke-linejoin="round" stroke="rgb(28.627455%, 58.431399%, 95.294118%)" stroke-opacity="1" stroke-miterlimit="10" d="M 200 80 C 200 80 180 80 180 60 "/>
<path fill="none" stroke-width="8" stroke-linecap="round" stroke-linejoin="round" stroke="rgb(28.627455%, 58.431399%, 95.294118%)" stroke-opacity="1" stroke-miterlimit="10" d="M 220 80 C 220 80 180 80 180 60 "/>
</svg>
